<svg width="1070" height="501" viewBox="0 0 1070 501" fill="none" xmlns="http://www.w3.org/2000/svg">
<rect width="1070" height="501" fill="white"/>
<path d="M22.741 37.912L20.453 38L20.233 36.988H20.365C21.0397 36.9147 21.553 36.7313 21.905 36.438C22.2717 36.13 22.5797 35.6313 22.829 34.942L27.493 22.38H28.549L33.741 35.294C34.049 36.0127 34.3204 36.482 34.555 36.702C34.8044 36.922 35.2004 37.032 35.743 37.032L35.985 38C34.841 37.9267 33.807 37.89 32.883 37.89C31.9737 37.89 31.0864 37.9267 30.221 38L30.023 37.054H30.111C31.2697 37.0393 31.849 36.834 31.849 36.438C31.849 36.2473 31.321 34.942 30.265 32.522H24.787L23.709 35.514C23.665 35.69 23.643 35.844 23.643 35.976C23.643 36.284 23.7824 36.5187 24.061 36.68C24.3397 36.8413 24.8164 36.944 25.491 36.988L25.755 38L22.741 37.912ZM27.317 25.57L25.205 31.378H29.759L27.317 25.57ZM37.2519 29.882L36.9219 29.904L36.7239 29.266C37.7506 29.0167 38.5059 28.7673 38.9899 28.518C39.4739 28.2687 39.7453 28.1293 39.8039 28.1C39.9946 28.1 40.1046 28.1147 40.1339 28.144C40.1926 28.2027 40.2366 28.672 40.2659 29.552C40.9699 29.1267 41.5859 28.8113 42.1139 28.606C42.6566 28.386 43.2433 28.276 43.8739 28.276C45.9126 28.276 46.9319 29.3687 46.9319 31.554V36.438C46.9319 36.702 46.9979 36.8853 47.1299 36.988C47.2619 37.076 47.5846 37.142 48.0979 37.186L48.2959 38.066L46.1399 38L43.7639 38.066L43.5879 37.186C44.2919 37.1273 44.7099 37.0687 44.8419 37.01C44.9886 36.9367 45.0619 36.746 45.0619 36.438V32.302C45.0619 31.3633 44.8786 30.7107 44.5119 30.344C44.1453 29.9773 43.5659 29.794 42.7739 29.794C41.9819 29.794 41.1606 29.9993 40.3099 30.41V36.438C40.3099 36.702 40.3759 36.8853 40.5079 36.988C40.6399 37.076 40.9626 37.142 41.4759 37.186L41.6739 38.066L39.5179 38L37.1419 38.066L36.9659 37.186C37.6699 37.1273 38.0879 37.0687 38.2199 37.01C38.3666 36.9367 38.4399 36.746 38.4399 36.438V31.29C38.4399 30.762 38.3446 30.3953 38.1539 30.19C37.9633 29.9847 37.6626 29.882 37.2519 29.882ZM53.2932 37.032C54.0412 37.032 54.5985 36.7827 54.9652 36.284V33.82C53.7039 34.04 52.8605 34.2893 52.4352 34.568C52.0099 34.832 51.7972 35.2133 51.7972 35.712C51.8265 36.1667 51.9805 36.504 52.2592 36.724C52.5379 36.9293 52.8825 37.032 53.2932 37.032ZM57.7592 36.9H58.2212C58.2945 36.9 58.3459 36.8927 58.3752 36.878C58.4339 37.2593 58.4852 37.494 58.5292 37.582C58.3532 37.67 57.9499 37.8093 57.3192 38C56.7032 38.176 56.2485 38.264 55.9552 38.264C55.6619 38.264 55.4565 38.1613 55.3392 37.956C55.2219 37.736 55.1339 37.3547 55.0752 36.812C54.8259 37.164 54.4519 37.4867 53.9532 37.78C53.4692 38.0733 52.9779 38.2347 52.4792 38.264H52.3692C51.6652 38.264 51.0565 38.066 50.5432 37.67C50.0445 37.274 49.7952 36.702 49.7952 35.954C49.7952 35.206 50.1399 34.634 50.8292 34.238C51.5332 33.8273 52.9119 33.4313 54.9652 33.05V31.73C54.9652 30.146 54.3712 29.354 53.1832 29.354C52.7725 29.354 52.3839 29.4567 52.0172 29.662V31.158C52.0172 31.2313 51.8192 31.3047 51.4232 31.378C51.0419 31.4513 50.7852 31.488 50.6532 31.488C50.5359 31.488 50.4185 31.4733 50.3012 31.444C50.1839 31.3267 50.1252 31.0627 50.1252 30.652C50.1252 30.2413 50.2425 29.904 50.4772 29.64C50.6972 29.3467 51.2252 29.046 52.0612 28.738C52.8972 28.43 53.5499 28.276 54.0192 28.276C55.8672 28.276 56.7912 29.3173 56.7912 31.4V35.8C56.7912 36.2693 56.8792 36.57 57.0552 36.702C57.2459 36.834 57.4805 36.9 57.7592 36.9ZM61.8115 38L59.4355 38.066L59.2595 37.186C59.9635 37.1273 60.3815 37.0687 60.5135 37.01C60.6602 36.9367 60.7335 36.746 60.7335 36.438V24.338C60.7335 23.854 60.6455 23.524 60.4695 23.348C60.3082 23.172 60.0808 23.084 59.7875 23.084C59.5088 23.084 59.3182 23.0913 59.2155 23.106L59.0175 22.446C60.1468 22.1087 61.2102 21.72 62.2075 21.28C62.4715 21.28 62.6035 21.4193 62.6035 21.698V36.438C62.6035 36.702 62.6768 36.8853 62.8235 36.988C62.9702 37.076 63.3002 37.142 63.8135 37.186L64.0115 38.066L61.8115 38ZM73.1343 28.54L74.6523 28.474L74.8283 29.288H74.7403C74.3149 29.3467 73.9996 29.464 73.7943 29.64C73.6036 29.8013 73.4203 30.1093 73.2443 30.564L68.8003 41.124C68.1403 42.488 67.5243 43.324 66.9523 43.632C66.6443 43.7933 66.2409 43.874 65.7423 43.874C65.2583 43.874 64.8696 43.7493 64.5763 43.5C64.5763 43.2947 64.6716 42.9867 64.8623 42.576C65.0529 42.18 65.1776 41.982 65.2363 41.982C65.4563 42.026 65.8083 42.048 66.2923 42.048C66.7909 42.048 67.2969 41.608 67.8103 40.728C68.3236 39.848 68.7563 38.9167 69.1083 37.934L65.9403 30.74C65.6616 30.124 65.4196 29.728 65.2143 29.552C65.0236 29.3613 64.7009 29.266 64.2463 29.266L64.0483 28.452C64.8109 28.5107 65.6543 28.54 66.5783 28.54C67.5023 28.54 68.3456 28.5107 69.1083 28.452L69.2843 29.244H69.1963C68.2136 29.2587 67.7223 29.4347 67.7223 29.772C67.7223 29.904 67.7663 30.058 67.8543 30.234L70.0323 35.712L72.2983 30.19C72.3863 29.9847 72.4303 29.8453 72.4303 29.772C72.4303 29.4787 72.0489 29.3247 71.2863 29.31L71.0883 28.474L73.1343 28.54ZM78.3407 34.898C78.3407 35.602 78.4654 36.1447 78.7147 36.526C78.9641 36.8927 79.3014 37.076 79.7267 37.076C80.1667 37.076 80.5701 36.9587 80.9367 36.724C80.9954 36.6947 81.0541 36.7093 81.1127 36.768L81.5087 37.362C80.7021 37.9633 79.8661 38.264 79.0007 38.264C78.1501 38.264 77.5121 38 77.0867 37.472C76.6761 36.9293 76.4707 36.2913 76.4707 35.558V30.036C76.4707 29.86 76.4414 29.75 76.3827 29.706C76.3387 29.662 76.2727 29.64 76.1847 29.64H75.4147L75.2167 29.002C75.8327 28.8113 76.3314 28.5033 76.7127 28.078C77.1087 27.6527 77.4901 27.0807 77.8567 26.362H78.0987C78.2014 26.362 78.2527 26.406 78.2527 26.494L78.3407 28.254C78.3407 28.4447 78.4361 28.54 78.6267 28.54H81.1347L81.3327 29.64H78.5827C78.4361 29.64 78.3627 29.75 78.3627 29.97C78.3627 29.9847 78.3627 29.992 78.3627 29.992V30.036L78.3407 34.898ZM85.5165 38L83.1405 38.066L82.9645 37.186C83.6685 37.1273 84.0865 37.0687 84.2185 37.01C84.3652 36.9367 84.4385 36.746 84.4385 36.438V30.85C84.4385 30.1167 84.0718 29.75 83.3385 29.75C83.1625 29.75 83.0232 29.7573 82.9205 29.772L82.7225 29.134C83.6758 28.8993 84.2845 28.7307 84.5485 28.628L85.8905 28.1C86.0812 28.1 86.1985 28.122 86.2425 28.166C86.2865 28.1953 86.3085 28.2907 86.3085 28.452V36.438C86.3085 36.702 86.3745 36.8853 86.5065 36.988C86.6385 37.076 86.9612 37.142 87.4745 37.186L87.6725 38.066L85.5165 38ZM85.3845 25.504C85.0178 25.504 84.7098 25.394 84.4605 25.174C84.2258 24.9393 84.1085 24.6387 84.1085 24.272C84.1085 23.9053 84.2332 23.59 84.4825 23.326C84.7318 23.062 85.0398 22.93 85.4065 22.93C85.7878 22.93 86.0958 23.04 86.3305 23.26C86.5798 23.48 86.7045 23.7807 86.7045 24.162C86.7045 24.5287 86.5725 24.844 86.3085 25.108C86.0592 25.372 85.7512 25.504 85.3845 25.504ZM96.2078 30.322C95.9585 30.0727 95.6138 29.8233 95.1738 29.574C94.7338 29.3247 94.2278 29.2 93.6558 29.2C93.0838 29.2 92.5558 29.5153 92.0718 30.146C91.5878 30.762 91.3458 31.6347 91.3458 32.764C91.3458 33.8933 91.6391 34.8687 92.2258 35.69C92.8125 36.4967 93.6851 36.9 94.8438 36.9C95.7678 36.9 96.5305 36.5993 97.1318 35.998C97.1611 35.9687 97.1978 35.954 97.2418 35.954C97.2858 35.954 97.3225 35.9687 97.3518 35.998L97.7918 36.504C96.7065 37.6773 95.4451 38.264 94.0078 38.264C92.5851 38.264 91.4485 37.8093 90.5978 36.9C89.7618 35.9907 89.3438 34.8467 89.3438 33.468C89.3438 31.7667 89.8131 30.476 90.7518 29.596C91.7051 28.716 92.8931 28.276 94.3158 28.276C94.9318 28.276 95.5551 28.364 96.1858 28.54C96.8311 28.716 97.3151 28.936 97.6378 29.2C97.6525 29.2293 97.6598 29.2587 97.6598 29.288C97.6598 29.4933 97.4325 29.926 96.9778 30.586C96.9191 30.6447 96.8385 30.674 96.7358 30.674C96.6478 30.674 96.4718 30.5567 96.2078 30.322ZM102.552 37.274C103.755 37.274 104.356 36.79 104.356 35.822C104.356 35.4113 104.173 35.074 103.806 34.81C103.454 34.5313 103.022 34.304 102.508 34.128C102.01 33.9373 101.504 33.732 100.99 33.512C100.477 33.292 100.037 32.962 99.6702 32.522C99.3182 32.082 99.1422 31.4953 99.1422 30.762C99.1422 30.014 99.4649 29.4127 100.11 28.958C100.77 28.4887 101.555 28.254 102.464 28.254C103.374 28.254 104.364 28.4227 105.434 28.76C105.581 28.848 105.654 29.1707 105.654 29.728C105.654 30.2853 105.61 30.784 105.522 31.224L104.642 31.136C104.569 30.5493 104.342 30.08 103.96 29.728C103.579 29.3613 103.11 29.178 102.552 29.178C102.01 29.178 101.577 29.2953 101.254 29.53C100.946 29.7647 100.792 30.0727 100.792 30.454C100.792 30.8353 100.968 31.158 101.32 31.422C101.687 31.686 102.127 31.906 102.64 32.082C103.154 32.2433 103.667 32.4267 104.18 32.632C104.708 32.8227 105.148 33.1453 105.5 33.6C105.867 34.0547 106.05 34.6707 106.05 35.448C106.05 36.2253 105.728 36.8927 105.082 37.45C104.452 37.9927 103.638 38.264 102.64 38.264C101.643 38.264 100.55 38.044 99.3622 37.604C99.2889 37.56 99.2229 37.2227 99.1642 36.592C99.1056 35.9613 99.0762 35.448 99.0762 35.052V34.942L100.11 34.854C100.345 36.4673 101.159 37.274 102.552 37.274Z" fill="black"/>
<line x1="-4.37114e-08" y1="58.5" x2="1070" y2="58.4999" stroke="black"/>
<path d="M38.7 354.3C38.7 353.087 38.9 351.947 39.3 350.88C39.7 349.8 40.3 348.907 41.1 348.2C41.9133 347.493 42.84 347.14 43.88 347.14C45.4267 347.14 46.6933 347.807 47.68 349.14C48.6667 350.46 49.16 352.107 49.16 354.08C49.16 356.04 48.68 357.727 47.72 359.14C46.76 360.54 45.5 361.24 43.94 361.24C42.38 361.24 41.1133 360.6 40.14 359.32C39.18 358.027 38.7 356.353 38.7 354.3ZM44.3 360.24C44.7933 360.24 45.22 360.087 45.58 359.78C45.9533 359.473 46.24 359.053 46.44 358.52C46.8533 357.453 47.06 356.18 47.06 354.7C47.06 353.033 46.84 351.56 46.4 350.28C46.1733 349.6 45.8267 349.067 45.36 348.68C44.8933 348.28 44.34 348.08 43.7 348.08C43.06 348.08 42.52 348.36 42.08 348.92C41.2267 349.987 40.8 351.527 40.8 353.54C40.8 358.007 41.9667 360.24 44.3 360.24Z" fill="black"/>
<path d="M35.94 298.42H37.62C38.18 298.42 38.58 298.347 38.82 298.2C39.0733 298.04 39.3 297.693 39.5 297.16L40 297.44C40 297.667 39.9467 298.087 39.84 298.7C39.8267 298.767 39.68 299.247 39.4 300.14C38.92 300.02 37.3933 299.96 34.82 299.96L34.14 302.4C36.06 302.573 37.46 303.04 38.34 303.8C39.2333 304.56 39.68 305.467 39.68 306.52C39.68 307.573 39.3467 308.527 38.68 309.38C38.0133 310.233 37.2 310.88 36.24 311.32C35.2933 311.747 34.3267 311.973 33.34 312C33.2467 312 33.2 311.893 33.2 311.68C33.2 311.453 33.2333 311.34 33.3 311.34C34.6067 311.127 35.7133 310.667 36.62 309.96C37.5267 309.24 37.98 308.293 37.98 307.12C37.98 306.133 37.4733 305.353 36.46 304.78C35.4467 304.207 34.2267 303.92 32.8 303.92L34.14 298.7C34.18 298.513 34.26 298.36 34.38 298.24C34.8467 298.36 35.3667 298.42 35.94 298.42ZM53.3686 312.02L51.3686 312.06L46.2486 306.32C45.7153 305.693 45.2486 305.34 44.8486 305.26V310.4C44.8486 310.667 44.9353 310.853 45.1086 310.96C45.2819 311.053 45.6419 311.127 46.1886 311.18L46.3686 312.06L44.0286 312L41.5686 312.06L41.4086 311.18C42.1553 311.1 42.6086 311.027 42.7686 310.96C42.9419 310.88 43.0286 310.693 43.0286 310.4V299.4C43.0286 299.147 42.9419 298.967 42.7686 298.86C42.6086 298.753 42.2619 298.673 41.7286 298.62L41.5486 297.74L43.8886 297.8L46.2886 297.74L46.4486 298.62C45.7019 298.7 45.2486 298.78 45.0886 298.86C44.9286 298.927 44.8486 299.107 44.8486 299.4V304.88C45.5553 304.307 46.5686 303.32 47.8886 301.92C49.2219 300.507 49.9686 299.72 50.1286 299.56C50.3153 299.333 50.4086 299.18 50.4086 299.1C50.4086 298.807 50.0219 298.633 49.2486 298.58L49.0086 297.72L51.7486 297.8L53.8286 297.72L54.0286 298.58H53.9086C53.4686 298.58 53.0153 298.667 52.5486 298.84C52.0819 299 51.7086 299.233 51.4286 299.54L47.0286 304.22L52.9286 310.6C53.4353 311.067 53.9886 311.327 54.5886 311.38L54.8486 312.06C54.1286 312.033 53.6353 312.02 53.3686 312.02Z" fill="black"/>
<path d="M32.2 263.06L29.66 263C29.6067 263 28.7 263.02 26.94 263.06L26.78 262.18C27.62 262.1 28.1333 262.027 28.32 261.96C28.5067 261.88 28.6 261.693 28.6 261.4V251.64C28.6 251.28 28.5 251.027 28.3 250.88C28.1133 250.72 27.8467 250.64 27.5 250.64C27.1533 250.64 26.9333 250.647 26.84 250.66L26.66 250.08C27.2067 250.08 27.9 249.927 28.74 249.62L30.08 249.14C30.2533 249.14 30.36 249.16 30.4 249.2C30.4533 249.227 30.48 249.313 30.48 249.46L30.5 261.4C30.5 261.68 30.5933 261.867 30.78 261.96C30.9667 262.053 31.38 262.127 32.02 262.18L32.2 263.06ZM33.4969 256.3C33.4969 255.087 33.6969 253.947 34.0969 252.88C34.4969 251.8 35.0969 250.907 35.8969 250.2C36.7102 249.493 37.6369 249.14 38.6769 249.14C40.2235 249.14 41.4902 249.807 42.4769 251.14C43.4635 252.46 43.9569 254.107 43.9569 256.08C43.9569 258.04 43.4769 259.727 42.5169 261.14C41.5569 262.54 40.2969 263.24 38.7369 263.24C37.1769 263.24 35.9102 262.6 34.9369 261.32C33.9769 260.027 33.4969 258.353 33.4969 256.3ZM39.0969 262.24C39.5902 262.24 40.0169 262.087 40.3769 261.78C40.7502 261.473 41.0369 261.053 41.2369 260.52C41.6502 259.453 41.8569 258.18 41.8569 256.7C41.8569 255.033 41.6369 253.56 41.1969 252.28C40.9702 251.6 40.6235 251.067 40.1569 250.68C39.6902 250.28 39.1369 250.08 38.4969 250.08C37.8569 250.08 37.3169 250.36 36.8769 250.92C36.0235 251.987 35.5969 253.527 35.5969 255.54C35.5969 260.007 36.7635 262.24 39.0969 262.24ZM57.2123 263.02L55.2123 263.06L50.0923 257.32C49.559 256.693 49.0923 256.34 48.6923 256.26V261.4C48.6923 261.667 48.779 261.853 48.9523 261.96C49.1257 262.053 49.4857 262.127 50.0323 262.18L50.2123 263.06L47.8723 263L45.4123 263.06L45.2523 262.18C45.999 262.1 46.4523 262.027 46.6123 261.96C46.7857 261.88 46.8723 261.693 46.8723 261.4V250.4C46.8723 250.147 46.7857 249.967 46.6123 249.86C46.4523 249.753 46.1057 249.673 45.5723 249.62L45.3923 248.74L47.7323 248.8L50.1323 248.74L50.2923 249.62C49.5457 249.7 49.0923 249.78 48.9323 249.86C48.7723 249.927 48.6923 250.107 48.6923 250.4V255.88C49.399 255.307 50.4123 254.32 51.7323 252.92C53.0657 251.507 53.8123 250.72 53.9723 250.56C54.159 250.333 54.2523 250.18 54.2523 250.1C54.2523 249.807 53.8657 249.633 53.0923 249.58L52.8523 248.72L55.5923 248.8L57.6723 248.72L57.8723 249.58H57.7523C57.3123 249.58 56.859 249.667 56.3923 249.84C55.9257 250 55.5523 250.233 55.2723 250.54L50.8723 255.22L56.7723 261.6C57.279 262.067 57.8323 262.327 58.4323 262.38L58.6923 263.06C57.9723 263.033 57.479 263.02 57.2123 263.02Z" fill="black"/>
<path d="M34.2 214.06L31.66 214C31.6067 214 30.7 214.02 28.94 214.06L28.78 213.18C29.62 213.1 30.1333 213.027 30.32 212.96C30.5067 212.88 30.6 212.693 30.6 212.4V202.64C30.6 202.28 30.5 202.027 30.3 201.88C30.1133 201.72 29.8467 201.64 29.5 201.64C29.1533 201.64 28.9333 201.647 28.84 201.66L28.66 201.08C29.2067 201.08 29.9 200.927 30.74 200.62L32.08 200.14C32.2533 200.14 32.36 200.16 32.4 200.2C32.4533 200.227 32.48 200.313 32.48 200.46L32.5 212.4C32.5 212.68 32.5933 212.867 32.78 212.96C32.9667 213.053 33.38 213.127 34.02 213.18L34.2 214.06ZM38.7369 200.42H40.4169C40.9769 200.42 41.3769 200.347 41.6169 200.2C41.8702 200.04 42.0969 199.693 42.2969 199.16L42.7969 199.44C42.7969 199.667 42.7435 200.087 42.6369 200.7C42.6235 200.767 42.4769 201.247 42.1969 202.14C41.7169 202.02 40.1902 201.96 37.6169 201.96L36.9369 204.4C38.8569 204.573 40.2569 205.04 41.1369 205.8C42.0302 206.56 42.4769 207.467 42.4769 208.52C42.4769 209.573 42.1435 210.527 41.4769 211.38C40.8102 212.233 39.9969 212.88 39.0369 213.32C38.0902 213.747 37.1235 213.973 36.1369 214C36.0435 214 35.9969 213.893 35.9969 213.68C35.9969 213.453 36.0302 213.34 36.0969 213.34C37.4035 213.127 38.5102 212.667 39.4169 211.96C40.3235 211.24 40.7769 210.293 40.7769 209.12C40.7769 208.133 40.2702 207.353 39.2569 206.78C38.2435 206.207 37.0235 205.92 35.5969 205.92L36.9369 200.7C36.9769 200.513 37.0569 200.36 37.1769 200.24C37.6435 200.36 38.1635 200.42 38.7369 200.42ZM56.1655 214.02L54.1655 214.06L49.0455 208.32C48.5121 207.693 48.0455 207.34 47.6455 207.26V212.4C47.6455 212.667 47.7321 212.853 47.9055 212.96C48.0788 213.053 48.4388 213.127 48.9855 213.18L49.1655 214.06L46.8255 214L44.3655 214.06L44.2055 213.18C44.9521 213.1 45.4055 213.027 45.5655 212.96C45.7388 212.88 45.8255 212.693 45.8255 212.4V201.4C45.8255 201.147 45.7388 200.967 45.5655 200.86C45.4055 200.753 45.0588 200.673 44.5255 200.62L44.3455 199.74L46.6855 199.8L49.0855 199.74L49.2455 200.62C48.4988 200.7 48.0455 200.78 47.8855 200.86C47.7255 200.927 47.6455 201.107 47.6455 201.4V206.88C48.3521 206.307 49.3655 205.32 50.6855 203.92C52.0188 202.507 52.7655 201.72 52.9255 201.56C53.1121 201.333 53.2055 201.18 53.2055 201.1C53.2055 200.807 52.8188 200.633 52.0455 200.58L51.8055 199.72L54.5455 199.8L56.6255 199.72L56.8255 200.58H56.7055C56.2655 200.58 55.8121 200.667 55.3455 200.84C54.8788 201 54.5055 201.233 54.2255 201.54L49.8255 206.22L55.7255 212.6C56.2321 213.067 56.7855 213.327 57.3855 213.38L57.6455 214.06C56.9255 214.033 56.4321 214.02 56.1655 214.02Z" fill="black"/>
<path d="M30.82 155.12C30.82 154.32 30.58 153.687 30.1 153.22C29.62 152.753 29.0333 152.52 28.34 152.52C27.66 152.52 27.1 152.68 26.66 153C26.22 153.307 25.7667 153.793 25.3 154.46C25.1933 154.46 25.0733 154.427 24.94 154.36C24.8067 154.28 24.7733 154.173 24.84 154.04C25.2 153.2 25.76 152.513 26.52 151.98C27.28 151.433 28.1667 151.16 29.18 151.16C30.1933 151.16 31.0533 151.48 31.76 152.12C32.48 152.747 32.84 153.56 32.84 154.56C32.84 156.213 32.0067 158.013 30.34 159.96C29.38 161.093 28.3867 162.2 27.36 163.28C27.36 163.347 27.3867 163.38 27.44 163.38H30.68C31.3333 163.38 31.8 163.24 32.08 162.96C32.36 162.667 32.6133 162.147 32.84 161.4L33.36 161.7C33.36 162.607 33.1533 163.773 32.74 165.2C32.3267 165.053 31.3067 164.98 29.68 164.98H28.22C26.5933 164.98 25.3533 165.013 24.5 165.08C24.4333 164.92 24.4 164.753 24.4 164.58C24.5333 164.46 24.8533 164.187 25.36 163.76C26.3733 162.933 27.3533 161.94 28.3 160.78C29.98 158.7 30.82 156.813 30.82 155.12ZM34.9539 158.3C34.9539 157.087 35.1539 155.947 35.5539 154.88C35.9539 153.8 36.5539 152.907 37.3539 152.2C38.1672 151.493 39.0939 151.14 40.1339 151.14C41.6806 151.14 42.9472 151.807 43.9339 153.14C44.9206 154.46 45.4139 156.107 45.4139 158.08C45.4139 160.04 44.9339 161.727 43.9739 163.14C43.0139 164.54 41.7539 165.24 40.1939 165.24C38.6339 165.24 37.3672 164.6 36.3939 163.32C35.4339 162.027 34.9539 160.353 34.9539 158.3ZM40.5539 164.24C41.0472 164.24 41.4739 164.087 41.8339 163.78C42.2072 163.473 42.4939 163.053 42.6939 162.52C43.1072 161.453 43.3139 160.18 43.3139 158.7C43.3139 157.033 43.0939 155.56 42.6539 154.28C42.4272 153.6 42.0806 153.067 41.6139 152.68C41.1472 152.28 40.5939 152.08 39.9539 152.08C39.3139 152.08 38.7739 152.36 38.3339 152.92C37.4806 153.987 37.0539 155.527 37.0539 157.54C37.0539 162.007 38.2206 164.24 40.5539 164.24ZM58.6694 165.02L56.6694 165.06L51.5494 159.32C51.016 158.693 50.5494 158.34 50.1494 158.26V163.4C50.1494 163.667 50.236 163.853 50.4094 163.96C50.5827 164.053 50.9427 164.127 51.4894 164.18L51.6694 165.06L49.3294 165L46.8694 165.06L46.7094 164.18C47.456 164.1 47.9094 164.027 48.0694 163.96C48.2427 163.88 48.3294 163.693 48.3294 163.4V152.4C48.3294 152.147 48.2427 151.967 48.0694 151.86C47.9094 151.753 47.5627 151.673 47.0294 151.62L46.8494 150.74L49.1894 150.8L51.5894 150.74L51.7494 151.62C51.0027 151.7 50.5494 151.78 50.3894 151.86C50.2294 151.927 50.1494 152.107 50.1494 152.4V157.88C50.856 157.307 51.8694 156.32 53.1894 154.92C54.5227 153.507 55.2694 152.72 55.4294 152.56C55.616 152.333 55.7094 152.18 55.7094 152.1C55.7094 151.807 55.3227 151.633 54.5494 151.58L54.3094 150.72L57.0494 150.8L59.1294 150.72L59.3294 151.58H59.2094C58.7694 151.58 58.316 151.667 57.8494 151.84C57.3827 152 57.0094 152.233 56.7294 152.54L52.3294 157.22L58.2294 163.6C58.736 164.067 59.2894 164.327 59.8894 164.38L60.1494 165.06C59.4294 165.033 58.936 165.02 58.6694 165.02Z" fill="black"/>
<path d="M32.82 106.12C32.82 105.32 32.58 104.687 32.1 104.22C31.62 103.753 31.0333 103.52 30.34 103.52C29.66 103.52 29.1 103.68 28.66 104C28.22 104.307 27.7667 104.793 27.3 105.46C27.1933 105.46 27.0733 105.427 26.94 105.36C26.8067 105.28 26.7733 105.173 26.84 105.04C27.2 104.2 27.76 103.513 28.52 102.98C29.28 102.433 30.1667 102.16 31.18 102.16C32.1933 102.16 33.0533 102.48 33.76 103.12C34.48 103.747 34.84 104.56 34.84 105.56C34.84 107.213 34.0067 109.013 32.34 110.96C31.38 112.093 30.3867 113.2 29.36 114.28C29.36 114.347 29.3867 114.38 29.44 114.38H32.68C33.3333 114.38 33.8 114.24 34.08 113.96C34.36 113.667 34.6133 113.147 34.84 112.4L35.36 112.7C35.36 113.607 35.1533 114.773 34.74 116.2C34.3267 116.053 33.3067 115.98 31.68 115.98H30.22C28.5933 115.98 27.3533 116.013 26.5 116.08C26.4333 115.92 26.4 115.753 26.4 115.58C26.5333 115.46 26.8533 115.187 27.36 114.76C28.3733 113.933 29.3533 112.94 30.3 111.78C31.98 109.7 32.82 107.813 32.82 106.12ZM40.1939 102.42H41.8739C42.4339 102.42 42.8339 102.347 43.0739 102.2C43.3272 102.04 43.5539 101.693 43.7539 101.16L44.2539 101.44C44.2539 101.667 44.2006 102.087 44.0939 102.7C44.0806 102.767 43.9339 103.247 43.6539 104.14C43.1739 104.02 41.6472 103.96 39.0739 103.96L38.3939 106.4C40.3139 106.573 41.7139 107.04 42.5939 107.8C43.4872 108.56 43.9339 109.467 43.9339 110.52C43.9339 111.573 43.6006 112.527 42.9339 113.38C42.2672 114.233 41.4539 114.88 40.4939 115.32C39.5472 115.747 38.5806 115.973 37.5939 116C37.5006 116 37.4539 115.893 37.4539 115.68C37.4539 115.453 37.4872 115.34 37.5539 115.34C38.8606 115.127 39.9672 114.667 40.8739 113.96C41.7806 113.24 42.2339 112.293 42.2339 111.12C42.2339 110.133 41.7272 109.353 40.7139 108.78C39.7006 108.207 38.4806 107.92 37.0539 107.92L38.3939 102.7C38.4339 102.513 38.5139 102.36 38.6339 102.24C39.1006 102.36 39.6206 102.42 40.1939 102.42ZM57.6225 116.02L55.6225 116.06L50.5025 110.32C49.9692 109.693 49.5025 109.34 49.1025 109.26V114.4C49.1025 114.667 49.1892 114.853 49.3625 114.96C49.5358 115.053 49.8958 115.127 50.4425 115.18L50.6225 116.06L48.2825 116L45.8225 116.06L45.6625 115.18C46.4092 115.1 46.8625 115.027 47.0225 114.96C47.1958 114.88 47.2825 114.693 47.2825 114.4V103.4C47.2825 103.147 47.1958 102.967 47.0225 102.86C46.8625 102.753 46.5158 102.673 45.9825 102.62L45.8025 101.74L48.1425 101.8L50.5425 101.74L50.7025 102.62C49.9558 102.7 49.5025 102.78 49.3425 102.86C49.1825 102.927 49.1025 103.107 49.1025 103.4V108.88C49.8092 108.307 50.8225 107.32 52.1425 105.92C53.4758 104.507 54.2225 103.72 54.3825 103.56C54.5692 103.333 54.6625 103.18 54.6625 103.1C54.6625 102.807 54.2758 102.633 53.5025 102.58L53.2625 101.72L56.0025 101.8L58.0825 101.72L58.2825 102.58H58.1625C57.7225 102.58 57.2692 102.667 56.8025 102.84C56.3358 103 55.9625 103.233 55.6825 103.54L51.2825 108.22L57.1825 114.6C57.6892 115.067 58.2425 115.327 58.8425 115.38L59.1025 116.06C58.3825 116.033 57.8892 116.02 57.6225 116.02Z" fill="black"/>
<line x1="96" y1="354.5" x2="996" y2="354.5" stroke="#CFCFCF"/>
<line x1="96" y1="305.5" x2="996" y2="305.5" stroke="#CFCFCF"/>
<line x1="96" y1="256.5" x2="996" y2="256.5" stroke="#CFCFCF"/>
<line x1="96" y1="207.5" x2="996" y2="207.5" stroke="#CFCFCF"/>
<line x1="96" y1="158.5" x2="996" y2="158.5" stroke="#CFCFCF"/>
<line x1="96" y1="109.5" x2="996" y2="109.5" stroke="#CFCFCF"/>
<path d="M97 381.74L99.52 381.8C99.5333 381.8 100.42 381.78 102.18 381.74L102.34 382.62C101.5 382.7 100.987 382.78 100.8 382.86C100.613 382.927 100.52 383.107 100.52 383.4V394.88C100.52 396.293 100.16 397.54 99.44 398.62C98.7333 399.713 97.7533 400.547 96.5 401.12C96.3933 401.12 96.3 401.073 96.22 400.98C96.0733 400.793 96 400.68 96 400.64C96 400.6 96.0267 400.56 96.08 400.52C97.1467 399.76 97.8467 399 98.18 398.24C98.5267 397.493 98.7 396.273 98.7 394.58V383.4C98.7 383.12 98.6067 382.933 98.42 382.84C98.2333 382.747 97.82 382.673 97.18 382.62L97 381.74ZM106.741 395.12C107.421 395.12 107.927 394.893 108.261 394.44V392.2C107.114 392.4 106.347 392.627 105.961 392.88C105.574 393.12 105.381 393.467 105.381 393.92C105.407 394.333 105.547 394.64 105.801 394.84C106.054 395.027 106.367 395.12 106.741 395.12ZM110.801 395H111.221C111.287 395 111.334 394.993 111.361 394.98C111.414 395.327 111.461 395.54 111.501 395.62C111.341 395.7 110.974 395.827 110.401 396C109.841 396.16 109.427 396.24 109.161 396.24C108.894 396.24 108.707 396.147 108.601 395.96C108.494 395.76 108.414 395.413 108.361 394.92C108.134 395.24 107.794 395.533 107.341 395.8C106.901 396.067 106.454 396.213 106.001 396.24H105.901C105.261 396.24 104.707 396.06 104.241 395.7C103.787 395.34 103.561 394.82 103.561 394.14C103.561 393.46 103.874 392.94 104.501 392.58C105.141 392.207 106.394 391.847 108.261 391.5V390.3C108.261 388.86 107.721 388.14 106.641 388.14C106.267 388.14 105.914 388.233 105.581 388.42V389.78C105.581 389.847 105.401 389.913 105.041 389.98C104.694 390.047 104.461 390.08 104.341 390.08C104.234 390.08 104.127 390.067 104.021 390.04C103.914 389.933 103.861 389.693 103.861 389.32C103.861 388.947 103.967 388.64 104.181 388.4C104.381 388.133 104.861 387.86 105.621 387.58C106.381 387.3 106.974 387.16 107.401 387.16C109.081 387.16 109.921 388.107 109.921 390V394C109.921 394.427 110.001 394.7 110.161 394.82C110.334 394.94 110.547 395 110.801 395ZM112.705 388.62L112.405 388.64L112.225 388.06C113.158 387.833 113.845 387.607 114.285 387.38C114.725 387.153 114.971 387.027 115.025 387C115.198 387 115.298 387.013 115.325 387.04C115.378 387.093 115.418 387.52 115.445 388.32C116.085 387.933 116.645 387.647 117.125 387.46C117.618 387.26 118.151 387.16 118.725 387.16C120.578 387.16 121.505 388.153 121.505 390.14V394.58C121.505 394.82 121.565 394.987 121.685 395.08C121.805 395.16 122.098 395.22 122.565 395.26L122.745 396.06L120.785 396L118.625 396.06L118.465 395.26C119.105 395.207 119.485 395.153 119.605 395.1C119.738 395.033 119.805 394.86 119.805 394.58V390.82C119.805 389.967 119.638 389.373 119.305 389.04C118.971 388.707 118.445 388.54 117.725 388.54C117.005 388.54 116.258 388.727 115.485 389.1V394.58C115.485 394.82 115.545 394.987 115.665 395.08C115.785 395.16 116.078 395.22 116.545 395.26L116.725 396.06L114.765 396L112.605 396.06L112.445 395.26C113.085 395.207 113.465 395.153 113.585 395.1C113.718 395.033 113.785 394.86 113.785 394.58V389.9C113.785 389.42 113.698 389.087 113.525 388.9C113.351 388.713 113.078 388.62 112.705 388.62Z" fill="black"/>
<path d="M200.64 382.68L198.58 382.7C197.647 382.74 197.18 382.847 197.18 383.02V388.02C197.18 388.153 197.247 388.22 197.38 388.22H200.36C200.68 388.22 200.893 388.073 201 387.78C201.12 387.473 201.18 386.913 201.18 386.1L201.84 386L201.8 388.66L201.84 391.12L201.18 391.22C201.18 390.433 201.133 389.927 201.04 389.7C200.947 389.473 200.72 389.36 200.36 389.36H197.38C197.247 389.36 197.18 389.42 197.18 389.54V394.22C197.18 394.62 197.313 394.88 197.58 395C197.86 395.12 198.44 395.18 199.32 395.18L199.52 396.04L196.76 396C196.587 396 195.62 396.02 193.86 396.06L193.7 395.18C194.447 395.1 194.9 395.027 195.06 394.96C195.233 394.88 195.333 394.693 195.36 394.4V383.4C195.36 383.12 195.267 382.933 195.08 382.84C194.893 382.747 194.46 382.673 193.78 382.62L193.6 381.74L196.1 381.8H199.12L204.06 381.82C204.153 382.02 204.2 382.467 204.2 383.16C204.2 383.853 204.167 384.567 204.1 385.3L203.46 385.24C203.3 384.293 203.007 383.633 202.58 383.26C202.153 382.873 201.507 382.68 200.64 382.68ZM212.044 391.14H206.244V391.4C206.244 392.373 206.517 393.22 207.064 393.94C207.611 394.647 208.337 395 209.244 395C210.151 395 210.897 394.707 211.484 394.12C211.524 394.08 211.557 394.06 211.584 394.06C211.611 394.06 211.644 394.08 211.684 394.12L212.124 394.62C211.124 395.7 209.964 396.24 208.644 396.24C207.337 396.24 206.304 395.827 205.544 395C204.797 394.173 204.424 393.073 204.424 391.7C204.424 390.313 204.851 389.213 205.704 388.4C206.557 387.573 207.531 387.16 208.624 387.16C209.717 387.16 210.577 387.493 211.204 388.16C211.831 388.813 212.144 389.733 212.144 390.92C212.144 391.067 212.111 391.14 212.044 391.14ZM210.144 390.2C210.144 388.733 209.577 388 208.444 388C207.844 388 207.357 388.213 206.984 388.64C206.611 389.053 206.384 389.573 206.304 390.2H210.144ZM216.164 393.5C216.164 394.087 216.364 394.547 216.764 394.88C217.177 395.2 217.77 395.36 218.544 395.36C219.33 395.36 219.91 395.04 220.284 394.4C220.67 393.76 220.864 392.913 220.864 391.86C220.864 390.793 220.617 389.927 220.124 389.26C219.63 388.593 219.004 388.26 218.244 388.26C217.497 388.26 216.804 388.527 216.164 389.06V393.5ZM214.464 392.62V383.76C214.464 383.24 214.357 382.9 214.144 382.74C213.93 382.567 213.717 382.48 213.504 382.48C213.29 382.48 213.137 382.487 213.044 382.5L212.884 381.9C213.27 381.807 213.784 381.647 214.424 381.42C215.064 381.18 215.484 380.993 215.684 380.86C215.924 380.86 216.044 380.913 216.044 381.02L216.064 388.44C216.304 388.107 216.677 387.813 217.184 387.56C217.69 387.293 218.257 387.16 218.884 387.16C220.03 387.16 220.95 387.553 221.644 388.34C222.337 389.113 222.684 390.18 222.684 391.54C222.684 392.887 222.304 394.007 221.544 394.9C220.784 395.793 219.717 396.24 218.344 396.24C217.317 396.24 216.444 396.04 215.724 395.64L215.004 396.18C214.937 396.22 214.884 396.24 214.844 396.24C214.79 396.24 214.677 396.22 214.504 396.18C214.437 396.153 214.41 396.093 214.424 396C214.45 395.893 214.464 394.767 214.464 392.62Z" fill="black"/>
<path d="M293.6 381.74L296.06 381.8C296.78 381.8 297.267 381.78 297.52 381.74C297.653 382.113 298.107 383.113 298.88 384.74C299.667 386.367 300.127 387.353 300.26 387.7C300.407 388.033 300.847 388.9 301.58 390.3C302.313 391.7 302.8 392.58 303.04 392.94C303.16 392.713 303.567 391.8 304.26 390.2C304.967 388.6 305.373 387.673 305.48 387.42C305.827 386.74 306.333 385.673 307 384.22C307.68 382.753 308.02 381.933 308.02 381.76C308.273 381.787 308.58 381.8 308.94 381.8C309.313 381.8 310.3 381.78 311.9 381.74L312.08 382.58C310.813 382.66 310.18 382.987 310.18 383.56V394.4C310.18 394.68 310.28 394.867 310.48 394.96C310.693 395.053 311.167 395.127 311.9 395.18L312.08 396.06C310.36 396.02 309.373 396 309.12 396L306.86 396.06L306.7 395.18C307.46 395.1 307.927 395.02 308.1 394.94C308.273 394.86 308.36 394.68 308.36 394.4V383.88L302.64 396L302.36 396.06L296.52 383.96V394.26C296.52 394.553 296.627 394.767 296.84 394.9C297.067 395.033 297.533 395.127 298.24 395.18L298.42 396.06L296.08 396L293.82 396.06L293.66 395.18C294.367 395.1 294.82 395.007 295.02 394.9C295.22 394.78 295.32 394.567 295.32 394.26V383.38C295.32 383.113 295.22 382.933 295.02 382.84C294.833 382.733 294.42 382.653 293.78 382.6L293.6 381.74ZM316.788 395.12C317.468 395.12 317.974 394.893 318.308 394.44V392.2C317.161 392.4 316.394 392.627 316.008 392.88C315.621 393.12 315.428 393.467 315.428 393.92C315.454 394.333 315.594 394.64 315.848 394.84C316.101 395.027 316.414 395.12 316.788 395.12ZM320.848 395H321.268C321.334 395 321.381 394.993 321.408 394.98C321.461 395.327 321.508 395.54 321.548 395.62C321.388 395.7 321.021 395.827 320.448 396C319.888 396.16 319.474 396.24 319.208 396.24C318.941 396.24 318.754 396.147 318.648 395.96C318.541 395.76 318.461 395.413 318.408 394.92C318.181 395.24 317.841 395.533 317.388 395.8C316.948 396.067 316.501 396.213 316.048 396.24H315.948C315.308 396.24 314.754 396.06 314.288 395.7C313.834 395.34 313.608 394.82 313.608 394.14C313.608 393.46 313.921 392.94 314.548 392.58C315.188 392.207 316.441 391.847 318.308 391.5V390.3C318.308 388.86 317.768 388.14 316.688 388.14C316.314 388.14 315.961 388.233 315.627 388.42V389.78C315.627 389.847 315.448 389.913 315.088 389.98C314.741 390.047 314.508 390.08 314.388 390.08C314.281 390.08 314.174 390.067 314.068 390.04C313.961 389.933 313.908 389.693 313.908 389.32C313.908 388.947 314.014 388.64 314.228 388.4C314.428 388.133 314.908 387.86 315.668 387.58C316.428 387.3 317.021 387.16 317.448 387.16C319.128 387.16 319.968 388.107 319.968 390V394C319.968 394.427 320.048 394.7 320.208 394.82C320.381 394.94 320.594 395 320.848 395ZM322.771 388.62L322.471 388.64L322.291 388.06C323.225 387.833 323.911 387.607 324.351 387.38C324.791 387.153 325.038 387.027 325.091 387C325.265 387 325.371 387.013 325.411 387.04C325.425 387.067 325.465 387.573 325.531 388.56C326.318 387.627 327.098 387.16 327.871 387.16C328.645 387.16 329.111 387.313 329.271 387.62C329.271 387.913 329.038 388.36 328.571 388.96C328.425 389.16 328.338 389.26 328.311 389.26L326.711 388.68H326.591C326.298 388.68 326.051 388.827 325.851 389.12C325.651 389.413 325.551 389.827 325.551 390.36V394.58C325.551 394.82 325.651 394.993 325.851 395.1C326.051 395.207 326.465 395.26 327.091 395.26L327.271 396.06L324.951 396L322.671 396.06L322.511 395.26C323.151 395.207 323.531 395.153 323.651 395.1C323.785 395.033 323.851 394.86 323.851 394.58V389.9C323.851 389.42 323.765 389.087 323.591 388.9C323.418 388.713 323.145 388.62 322.771 388.62Z" fill="black"/>
<path d="M401.38 395.92L399.3 396L399.1 395.08H399.22C399.833 395.013 400.3 394.847 400.62 394.58C400.953 394.3 401.233 393.847 401.46 393.22L405.7 381.8H406.66L411.38 393.54C411.66 394.193 411.907 394.62 412.12 394.82C412.347 395.02 412.707 395.12 413.2 395.12L413.42 396C412.38 395.933 411.44 395.9 410.6 395.9C409.773 395.9 408.967 395.933 408.18 396L408 395.14H408.08C409.133 395.127 409.66 394.94 409.66 394.58C409.66 394.407 409.18 393.22 408.22 391.02H403.24L402.26 393.74C402.22 393.9 402.2 394.04 402.2 394.16C402.2 394.44 402.327 394.653 402.58 394.8C402.833 394.947 403.267 395.04 403.88 395.08L404.12 396L401.38 395.92ZM405.54 384.7L403.62 389.98H407.76L405.54 384.7ZM417.092 393.46C417.092 394.047 417.298 394.507 417.712 394.84C418.125 395.173 418.718 395.34 419.492 395.34C420.265 395.34 420.845 395.027 421.232 394.4C421.618 393.76 421.812 392.913 421.812 391.86C421.812 390.793 421.558 389.927 421.052 389.26C420.558 388.593 419.945 388.26 419.212 388.26C418.478 388.26 417.772 388.54 417.092 389.1V393.46ZM416.492 401.1L414.212 401.16L414.052 400.36C414.692 400.307 415.072 400.247 415.192 400.18C415.325 400.127 415.392 399.96 415.392 399.68V389.9C415.392 389.433 415.298 389.107 415.112 388.92C414.925 388.72 414.645 388.62 414.272 388.62L413.972 388.64L413.812 388.04C414.198 387.947 414.712 387.787 415.352 387.56C415.992 387.32 416.412 387.133 416.612 387C416.838 387 416.965 387.053 416.992 387.16V388.44C417.232 388.107 417.605 387.813 418.112 387.56C418.618 387.293 419.185 387.16 419.812 387.16C420.958 387.16 421.878 387.553 422.572 388.34C423.265 389.113 423.612 390.107 423.612 391.32C423.612 392.827 423.245 394.027 422.512 394.92C421.792 395.8 420.745 396.24 419.372 396.24C418.518 396.24 417.758 396.053 417.092 395.68V399.68C417.092 399.92 417.192 400.093 417.392 400.2C417.592 400.307 418.005 400.36 418.632 400.36L418.812 401.16C418.812 401.16 418.038 401.14 416.492 401.1ZM425.451 388.62L425.151 388.64L424.971 388.06C425.904 387.833 426.591 387.607 427.031 387.38C427.471 387.153 427.718 387.027 427.771 387C427.944 387 428.051 387.013 428.091 387.04C428.104 387.067 428.144 387.573 428.211 388.56C428.998 387.627 429.778 387.16 430.551 387.16C431.324 387.16 431.791 387.313 431.951 387.62C431.951 387.913 431.718 388.36 431.251 388.96C431.104 389.16 431.018 389.26 430.991 389.26L429.391 388.68H429.271C428.978 388.68 428.731 388.827 428.531 389.12C428.331 389.413 428.231 389.827 428.231 390.36V394.58C428.231 394.82 428.331 394.993 428.531 395.1C428.731 395.207 429.144 395.26 429.771 395.26L429.951 396.06L427.631 396L425.351 396.06L425.191 395.26C425.831 395.207 426.211 395.153 426.331 395.1C426.464 395.033 426.531 394.86 426.531 394.58V389.9C426.531 389.42 426.444 389.087 426.271 388.9C426.098 388.713 425.824 388.62 425.451 388.62Z" fill="black"/>
<path d="M501.6 381.74L504.06 381.8C504.78 381.8 505.267 381.78 505.52 381.74C505.653 382.113 506.107 383.113 506.88 384.74C507.667 386.367 508.127 387.353 508.26 387.7C508.407 388.033 508.847 388.9 509.58 390.3C510.313 391.7 510.8 392.58 511.04 392.94C511.16 392.713 511.567 391.8 512.26 390.2C512.967 388.6 513.373 387.673 513.48 387.42C513.827 386.74 514.333 385.673 515 384.22C515.68 382.753 516.02 381.933 516.02 381.76C516.273 381.787 516.58 381.8 516.94 381.8C517.313 381.8 518.3 381.78 519.9 381.74L520.08 382.58C518.813 382.66 518.18 382.987 518.18 383.56V394.4C518.18 394.68 518.28 394.867 518.48 394.96C518.693 395.053 519.167 395.127 519.9 395.18L520.08 396.06C518.36 396.02 517.373 396 517.12 396L514.86 396.06L514.7 395.18C515.46 395.1 515.927 395.02 516.1 394.94C516.273 394.86 516.36 394.68 516.36 394.4V383.88L510.64 396L510.36 396.06L504.52 383.96V394.26C504.52 394.553 504.627 394.767 504.84 394.9C505.067 395.033 505.533 395.127 506.24 395.18L506.42 396.06L504.08 396L501.82 396.06L501.66 395.18C502.367 395.1 502.82 395.007 503.02 394.9C503.22 394.78 503.32 394.567 503.32 394.26V383.38C503.32 383.113 503.22 382.933 503.02 382.84C502.833 382.733 502.42 382.653 501.78 382.6L501.6 381.74ZM524.788 395.12C525.468 395.12 525.974 394.893 526.308 394.44V392.2C525.161 392.4 524.394 392.627 524.008 392.88C523.621 393.12 523.428 393.467 523.428 393.92C523.454 394.333 523.594 394.64 523.848 394.84C524.101 395.027 524.414 395.12 524.788 395.12ZM528.848 395H529.268C529.334 395 529.381 394.993 529.408 394.98C529.461 395.327 529.508 395.54 529.548 395.62C529.388 395.7 529.021 395.827 528.448 396C527.888 396.16 527.474 396.24 527.208 396.24C526.941 396.24 526.754 396.147 526.648 395.96C526.541 395.76 526.461 395.413 526.408 394.92C526.181 395.24 525.841 395.533 525.388 395.8C524.948 396.067 524.501 396.213 524.048 396.24H523.948C523.308 396.24 522.754 396.06 522.288 395.7C521.834 395.34 521.608 394.82 521.608 394.14C521.608 393.46 521.921 392.94 522.548 392.58C523.188 392.207 524.441 391.847 526.308 391.5V390.3C526.308 388.86 525.768 388.14 524.688 388.14C524.314 388.14 523.961 388.233 523.627 388.42V389.78C523.627 389.847 523.448 389.913 523.088 389.98C522.741 390.047 522.508 390.08 522.388 390.08C522.281 390.08 522.174 390.067 522.068 390.04C521.961 389.933 521.908 389.693 521.908 389.32C521.908 388.947 522.014 388.64 522.228 388.4C522.428 388.133 522.908 387.86 523.668 387.58C524.428 387.3 525.021 387.16 525.448 387.16C527.128 387.16 527.968 388.107 527.968 390V394C527.968 394.427 528.048 394.7 528.208 394.82C528.381 394.94 528.594 395 528.848 395ZM537.551 387.4L538.931 387.34L539.091 388.08H539.011C538.625 388.133 538.338 388.24 538.151 388.4C537.978 388.547 537.811 388.827 537.651 389.24L533.611 398.84C533.011 400.08 532.451 400.84 531.931 401.12C531.651 401.267 531.285 401.34 530.831 401.34C530.391 401.34 530.038 401.227 529.771 401C529.771 400.813 529.858 400.533 530.031 400.16C530.205 399.8 530.318 399.62 530.371 399.62C530.571 399.66 530.891 399.68 531.331 399.68C531.785 399.68 532.245 399.28 532.711 398.48C533.178 397.68 533.571 396.833 533.891 395.94L531.011 389.4C530.758 388.84 530.538 388.48 530.351 388.32C530.178 388.147 529.885 388.06 529.471 388.06L529.291 387.32C529.985 387.373 530.751 387.4 531.591 387.4C532.431 387.4 533.198 387.373 533.891 387.32L534.051 388.04H533.971C533.078 388.053 532.631 388.213 532.631 388.52C532.631 388.64 532.671 388.78 532.751 388.94L534.731 393.92L536.791 388.9C536.871 388.713 536.911 388.587 536.911 388.52C536.911 388.253 536.565 388.113 535.871 388.1L535.691 387.34L537.551 387.4Z" fill="black"/>
<path d="M610 381.74L612.52 381.8C612.533 381.8 613.42 381.78 615.18 381.74L615.34 382.62C614.5 382.7 613.987 382.78 613.8 382.86C613.613 382.927 613.52 383.107 613.52 383.4V394.88C613.52 396.293 613.16 397.54 612.44 398.62C611.733 399.713 610.753 400.547 609.5 401.12C609.393 401.12 609.3 401.073 609.22 400.98C609.073 400.793 609 400.68 609 400.64C609 400.6 609.027 400.56 609.08 400.52C610.147 399.76 610.847 399 611.18 398.24C611.527 397.493 611.7 396.273 611.7 394.58V383.4C611.7 383.12 611.607 382.933 611.42 382.84C611.233 382.747 610.82 382.673 610.18 382.62L610 381.74ZM620.041 396.24C618.134 396.24 617.181 395.233 617.181 393.22V388.78C617.181 388.553 617.114 388.4 616.981 388.32C616.847 388.227 616.547 388.153 616.081 388.1L615.941 387.34C616.301 387.38 616.787 387.4 617.401 387.4C618.027 387.4 618.521 387.38 618.881 387.34V392.54C618.881 394.087 619.587 394.86 621.001 394.86C621.374 394.86 621.754 394.787 622.141 394.64C622.527 394.48 622.834 394.287 623.061 394.06V388.78C623.061 388.54 622.994 388.38 622.861 388.3C622.741 388.22 622.454 388.153 622.001 388.1L621.821 387.34C622.154 387.38 622.641 387.4 623.281 387.4C623.934 387.4 624.427 387.38 624.761 387.34V393.76C624.761 394.2 624.827 394.52 624.961 394.72C625.107 394.92 625.341 395.02 625.661 395.02H626.381L626.521 395.66C626.361 395.687 626.067 395.733 625.641 395.8C625.227 395.853 624.941 395.893 624.781 395.92C624.621 395.947 624.394 396 624.101 396.08C623.821 396.173 623.607 396.233 623.461 396.26C623.287 396.26 623.201 396.213 623.201 396.12L623.141 394.88C622.927 395.093 622.781 395.233 622.701 395.3C622.621 395.353 622.507 395.433 622.361 395.54C622.227 395.647 622.081 395.733 621.921 395.8C621.774 395.867 621.601 395.933 621.401 396C621.001 396.16 620.547 396.24 620.041 396.24ZM627.853 388.62L627.553 388.64L627.373 388.06C628.306 387.833 628.993 387.607 629.433 387.38C629.873 387.153 630.12 387.027 630.173 387C630.346 387 630.446 387.013 630.473 387.04C630.526 387.093 630.566 387.52 630.593 388.32C631.233 387.933 631.793 387.647 632.273 387.46C632.766 387.26 633.3 387.16 633.873 387.16C635.726 387.16 636.653 388.153 636.653 390.14V394.58C636.653 394.82 636.713 394.987 636.833 395.08C636.953 395.16 637.246 395.22 637.713 395.26L637.893 396.06L635.933 396L633.773 396.06L633.613 395.26C634.253 395.207 634.633 395.153 634.753 395.1C634.886 395.033 634.953 394.86 634.953 394.58V390.82C634.953 389.967 634.786 389.373 634.453 389.04C634.12 388.707 633.593 388.54 632.873 388.54C632.153 388.54 631.406 388.727 630.633 389.1V394.58C630.633 394.82 630.693 394.987 630.813 395.08C630.933 395.16 631.226 395.22 631.693 395.26L631.873 396.06L629.913 396L627.753 396.06L627.593 395.26C628.233 395.207 628.613 395.153 628.733 395.1C628.866 395.033 628.933 394.86 628.933 394.58V389.9C628.933 389.42 628.846 389.087 628.673 388.9C628.5 388.713 628.226 388.62 627.853 388.62Z" fill="black"/>
<path d="M709 381.74L711.52 381.8C711.533 381.8 712.42 381.78 714.18 381.74L714.34 382.62C713.5 382.7 712.987 382.78 712.8 382.86C712.613 382.927 712.52 383.107 712.52 383.4V394.88C712.52 396.293 712.16 397.54 711.44 398.62C710.733 399.713 709.753 400.547 708.5 401.12C708.393 401.12 708.3 401.073 708.22 400.98C708.073 400.793 708 400.68 708 400.64C708 400.6 708.027 400.56 708.08 400.52C709.147 399.76 709.847 399 710.18 398.24C710.527 397.493 710.7 396.273 710.7 394.58V383.4C710.7 383.12 710.607 382.933 710.42 382.84C710.233 382.747 709.82 382.673 709.18 382.62L709 381.74ZM719.041 396.24C717.134 396.24 716.181 395.233 716.181 393.22V388.78C716.181 388.553 716.114 388.4 715.981 388.32C715.847 388.227 715.547 388.153 715.081 388.1L714.941 387.34C715.301 387.38 715.787 387.4 716.401 387.4C717.027 387.4 717.521 387.38 717.881 387.34V392.54C717.881 394.087 718.587 394.86 720.001 394.86C720.374 394.86 720.754 394.787 721.141 394.64C721.527 394.48 721.834 394.287 722.061 394.06V388.78C722.061 388.54 721.994 388.38 721.861 388.3C721.741 388.22 721.454 388.153 721.001 388.1L720.821 387.34C721.154 387.38 721.641 387.4 722.281 387.4C722.934 387.4 723.427 387.38 723.761 387.34V393.76C723.761 394.2 723.827 394.52 723.961 394.72C724.107 394.92 724.341 395.02 724.661 395.02H725.381L725.521 395.66C725.361 395.687 725.067 395.733 724.641 395.8C724.227 395.853 723.941 395.893 723.781 395.92C723.621 395.947 723.394 396 723.101 396.08C722.821 396.173 722.607 396.233 722.461 396.26C722.287 396.26 722.201 396.213 722.201 396.12L722.141 394.88C721.927 395.093 721.781 395.233 721.701 395.3C721.621 395.353 721.507 395.433 721.361 395.54C721.227 395.647 721.081 395.733 720.921 395.8C720.774 395.867 720.601 395.933 720.401 396C720.001 396.16 719.547 396.24 719.041 396.24ZM728.633 396L726.473 396.06L726.313 395.26C726.953 395.207 727.333 395.153 727.453 395.1C727.586 395.033 727.653 394.86 727.653 394.58V383.58C727.653 383.14 727.573 382.84 727.413 382.68C727.266 382.52 727.06 382.44 726.793 382.44C726.54 382.44 726.366 382.447 726.273 382.46L726.093 381.86C727.12 381.553 728.086 381.2 728.993 380.8C729.233 380.8 729.353 380.927 729.353 381.18V394.58C729.353 394.82 729.42 394.987 729.553 395.08C729.686 395.16 729.986 395.22 730.453 395.26L730.633 396.06L728.633 396Z" fill="black"/>
<path d="M803.38 395.92L801.3 396L801.1 395.08H801.22C801.833 395.013 802.3 394.847 802.62 394.58C802.953 394.3 803.233 393.847 803.46 393.22L807.7 381.8H808.66L813.38 393.54C813.66 394.193 813.907 394.62 814.12 394.82C814.347 395.02 814.707 395.12 815.2 395.12L815.42 396C814.38 395.933 813.44 395.9 812.6 395.9C811.773 395.9 810.967 395.933 810.18 396L810 395.14H810.08C811.133 395.127 811.66 394.94 811.66 394.58C811.66 394.407 811.18 393.22 810.22 391.02H805.24L804.26 393.74C804.22 393.9 804.2 394.04 804.2 394.16C804.2 394.44 804.327 394.653 804.58 394.8C804.833 394.947 805.267 395.04 805.88 395.08L806.12 396L803.38 395.92ZM807.54 384.7L805.62 389.98H809.76L807.54 384.7ZM819.912 396.24C818.005 396.24 817.052 395.233 817.052 393.22V388.78C817.052 388.553 816.985 388.4 816.852 388.32C816.718 388.227 816.418 388.153 815.952 388.1L815.812 387.34C816.172 387.38 816.658 387.4 817.272 387.4C817.898 387.4 818.392 387.38 818.752 387.34V392.54C818.752 394.087 819.458 394.86 820.872 394.86C821.245 394.86 821.625 394.787 822.012 394.64C822.398 394.48 822.705 394.287 822.932 394.06V388.78C822.932 388.54 822.865 388.38 822.732 388.3C822.612 388.22 822.325 388.153 821.872 388.1L821.692 387.34C822.025 387.38 822.512 387.4 823.152 387.4C823.805 387.4 824.298 387.38 824.632 387.34V393.76C824.632 394.2 824.698 394.52 824.832 394.72C824.978 394.92 825.212 395.02 825.532 395.02H826.252L826.392 395.66C826.232 395.687 825.938 395.733 825.512 395.8C825.098 395.853 824.812 395.893 824.652 395.92C824.492 395.947 824.265 396 823.972 396.08C823.692 396.173 823.478 396.233 823.332 396.26C823.158 396.26 823.072 396.213 823.072 396.12L823.012 394.88C822.798 395.093 822.652 395.233 822.572 395.3C822.492 395.353 822.378 395.433 822.232 395.54C822.098 395.647 821.952 395.733 821.792 395.8C821.645 395.867 821.472 395.933 821.272 396C820.872 396.16 820.418 396.24 819.912 396.24ZM834.484 390.16C834.484 391.147 834.151 391.94 833.484 392.54C832.817 393.127 832.011 393.42 831.064 393.42C830.851 393.42 830.631 393.413 830.404 393.4C830.191 393.373 829.971 393.427 829.744 393.56C829.517 393.693 829.404 393.853 829.404 394.04C829.404 394.36 829.677 394.6 830.224 394.76C830.544 394.84 831.191 394.927 832.164 395.02C833.137 395.113 833.811 395.24 834.184 395.4C834.997 395.747 835.404 396.44 835.404 397.48C835.404 398.52 834.937 399.427 834.004 400.2C833.084 400.973 831.957 401.36 830.624 401.36C829.637 401.36 828.771 401.133 828.024 400.68C827.277 400.24 826.904 399.56 826.904 398.64C826.904 398.213 826.997 397.9 827.184 397.7C827.384 397.513 827.591 397.333 827.804 397.16C828.031 396.987 828.291 396.793 828.584 396.58C828.877 396.367 829.051 396.24 829.104 396.2C828.771 396.067 828.471 395.86 828.204 395.58C827.937 395.287 827.804 395.027 827.804 394.8C827.804 394.573 827.857 394.407 827.964 394.3C828.231 394.033 828.724 393.653 829.444 393.16C828.911 392.92 828.464 392.567 828.104 392.1C827.744 391.633 827.564 391.087 827.564 390.46C827.564 389.513 827.897 388.727 828.564 388.1C829.231 387.473 830.037 387.16 830.984 387.16C831.504 387.16 831.984 387.227 832.424 387.36C833.011 387.48 833.597 387.54 834.184 387.54C834.771 387.54 835.317 387.527 835.824 387.5C835.824 387.633 835.797 387.853 835.744 388.16C835.691 388.453 835.617 388.66 835.524 388.78L834.004 388.5C834.324 388.993 834.484 389.547 834.484 390.16ZM831.124 400.36C831.884 400.36 832.504 400.153 832.984 399.74C833.464 399.34 833.704 398.833 833.704 398.22C833.704 397.607 833.431 397.153 832.884 396.86C832.337 396.58 831.484 396.44 830.324 396.44C830.017 396.44 829.757 396.507 829.544 396.64C829.331 396.773 829.171 396.88 829.064 396.96C828.957 397.04 828.837 397.193 828.704 397.42C828.571 397.647 828.504 397.907 828.504 398.2C828.504 398.813 828.751 399.327 829.244 399.74C829.751 400.153 830.377 400.36 831.124 400.36ZM831.184 392.54C832.371 392.54 832.964 391.86 832.964 390.5C832.964 389.74 832.784 389.133 832.424 388.68C832.077 388.227 831.597 388 830.984 388C830.371 388 829.897 388.173 829.564 388.52C829.244 388.867 829.084 389.393 829.084 390.1C829.084 390.807 829.284 391.393 829.684 391.86C830.084 392.313 830.584 392.54 831.184 392.54Z" fill="black"/>
<path d="M911.42 395.24C912.34 395.24 913.047 395.007 913.54 394.54C914.047 394.073 914.3 393.507 914.3 392.84C914.3 392.173 914.053 391.607 913.56 391.14C913.08 390.66 912.487 390.247 911.78 389.9C911.087 389.553 910.387 389.193 909.68 388.82C908.987 388.447 908.393 387.953 907.9 387.34C907.42 386.713 907.18 385.987 907.18 385.16C907.18 383.973 907.607 383.08 908.46 382.48C909.313 381.867 910.327 381.56 911.5 381.56C913.007 381.56 914.3 381.813 915.38 382.32C915.473 382.52 915.52 383.047 915.52 383.9C915.52 384.74 915.493 385.373 915.44 385.8L914.82 385.76C914.767 384.827 914.44 384.053 913.84 383.44C913.253 382.813 912.453 382.5 911.44 382.5C910.72 382.5 910.127 382.687 909.66 383.06C909.207 383.42 908.98 383.927 908.98 384.58C908.98 385.353 909.453 386.027 910.4 386.6C910.813 386.853 911.273 387.107 911.78 387.36C912.287 387.613 912.793 387.887 913.3 388.18C913.807 388.46 914.267 388.773 914.68 389.12C915.627 389.893 916.1 390.88 916.1 392.08C916.1 393.267 915.687 394.26 914.86 395.06C914.033 395.847 912.94 396.24 911.58 396.24C910.22 396.24 908.807 395.967 907.34 395.42C907.273 395.22 907.18 394.727 907.06 393.94C906.94 393.14 906.853 392.467 906.8 391.92L907.72 391.78C908.253 394.087 909.487 395.24 911.42 395.24ZM925.357 391.14H919.557V391.4C919.557 392.373 919.83 393.22 920.377 393.94C920.923 394.647 921.65 395 922.557 395C923.463 395 924.21 394.707 924.797 394.12C924.837 394.08 924.87 394.06 924.897 394.06C924.923 394.06 924.957 394.08 924.997 394.12L925.437 394.62C924.437 395.7 923.277 396.24 921.957 396.24C920.65 396.24 919.617 395.827 918.857 395C918.11 394.173 917.737 393.073 917.737 391.7C917.737 390.313 918.163 389.213 919.017 388.4C919.87 387.573 920.843 387.16 921.937 387.16C923.03 387.16 923.89 387.493 924.517 388.16C925.143 388.813 925.457 389.733 925.457 390.92C925.457 391.067 925.423 391.14 925.357 391.14ZM923.457 390.2C923.457 388.733 922.89 388 921.757 388C921.157 388 920.67 388.213 920.297 388.64C919.923 389.053 919.697 389.573 919.617 390.2H923.457ZM929.736 393.46C929.736 394.047 929.943 394.507 930.356 394.84C930.77 395.173 931.363 395.34 932.136 395.34C932.91 395.34 933.49 395.027 933.876 394.4C934.263 393.76 934.456 392.913 934.456 391.86C934.456 390.793 934.203 389.927 933.696 389.26C933.203 388.593 932.59 388.26 931.856 388.26C931.123 388.26 930.416 388.54 929.736 389.1V393.46ZM929.136 401.1L926.856 401.16L926.696 400.36C927.336 400.307 927.716 400.247 927.836 400.18C927.97 400.127 928.036 399.96 928.036 399.68V389.9C928.036 389.433 927.943 389.107 927.756 388.92C927.57 388.72 927.29 388.62 926.916 388.62L926.616 388.64L926.456 388.04C926.843 387.947 927.356 387.787 927.996 387.56C928.636 387.32 929.056 387.133 929.256 387C929.483 387 929.61 387.053 929.636 387.16V388.44C929.876 388.107 930.25 387.813 930.756 387.56C931.263 387.293 931.83 387.16 932.456 387.16C933.603 387.16 934.523 387.553 935.216 388.34C935.91 389.113 936.256 390.107 936.256 391.32C936.256 392.827 935.89 394.027 935.156 394.92C934.436 395.8 933.39 396.24 932.016 396.24C931.163 396.24 930.403 396.053 929.736 395.68V399.68C929.736 399.92 929.836 400.093 930.036 400.2C930.236 400.307 930.65 400.36 931.276 400.36L931.456 401.16C931.456 401.16 930.683 401.14 929.136 401.1Z" fill="black"/>
<circle cx="103.5" cy="456.5" r="7.5" fill="#38BDF8"/>
<path d="M126.42 461.24C127.34 461.24 128.047 461.007 128.54 460.54C129.047 460.073 129.3 459.507 129.3 458.84C129.3 458.173 129.053 457.607 128.56 457.14C128.08 456.66 127.487 456.247 126.78 455.9C126.087 455.553 125.387 455.193 124.68 454.82C123.987 454.447 123.393 453.953 122.9 453.34C122.42 452.713 122.18 451.987 122.18 451.16C122.18 449.973 122.607 449.08 123.46 448.48C124.313 447.867 125.327 447.56 126.5 447.56C128.007 447.56 129.3 447.813 130.38 448.32C130.473 448.52 130.52 449.047 130.52 449.9C130.52 450.74 130.493 451.373 130.44 451.8L129.82 451.76C129.767 450.827 129.44 450.053 128.84 449.44C128.253 448.813 127.453 448.5 126.44 448.5C125.72 448.5 125.127 448.687 124.66 449.06C124.207 449.42 123.98 449.927 123.98 450.58C123.98 451.353 124.453 452.027 125.4 452.6C125.813 452.853 126.273 453.107 126.78 453.36C127.287 453.613 127.793 453.887 128.3 454.18C128.807 454.46 129.267 454.773 129.68 455.12C130.627 455.893 131.1 456.88 131.1 458.08C131.1 459.267 130.687 460.26 129.86 461.06C129.033 461.847 127.94 462.24 126.58 462.24C125.22 462.24 123.807 461.967 122.34 461.42C122.273 461.22 122.18 460.727 122.06 459.94C121.94 459.14 121.853 458.467 121.8 457.92L122.72 457.78C123.253 460.087 124.487 461.24 126.42 461.24ZM135.117 459.18C135.117 459.82 135.23 460.313 135.457 460.66C135.683 460.993 135.99 461.16 136.377 461.16C136.777 461.16 137.143 461.053 137.477 460.84C137.53 460.813 137.583 460.827 137.637 460.88L137.997 461.42C137.263 461.967 136.503 462.24 135.717 462.24C134.943 462.24 134.363 462 133.977 461.52C133.603 461.027 133.417 460.447 133.417 459.78V454.76C133.417 454.6 133.39 454.5 133.337 454.46C133.297 454.42 133.237 454.4 133.157 454.4H132.457L132.277 453.82C132.837 453.647 133.29 453.367 133.637 452.98C133.997 452.593 134.343 452.073 134.677 451.42H134.897C134.99 451.42 135.037 451.46 135.037 451.54L135.117 453.14C135.117 453.313 135.203 453.4 135.377 453.4H137.657L137.837 454.4H135.337C135.203 454.4 135.137 454.5 135.137 454.7C135.137 454.713 135.137 454.72 135.137 454.72V454.76L135.117 459.18ZM142.9 462.24C140.993 462.24 140.04 461.233 140.04 459.22V454.78C140.04 454.553 139.973 454.4 139.84 454.32C139.707 454.227 139.407 454.153 138.94 454.1L138.8 453.34C139.16 453.38 139.647 453.4 140.26 453.4C140.887 453.4 141.38 453.38 141.74 453.34V458.54C141.74 460.087 142.447 460.86 143.86 460.86C144.233 460.86 144.613 460.787 145 460.64C145.387 460.48 145.693 460.287 145.92 460.06V454.78C145.92 454.54 145.853 454.38 145.72 454.3C145.6 454.22 145.313 454.153 144.86 454.1L144.68 453.34C145.013 453.38 145.5 453.4 146.14 453.4C146.793 453.4 147.287 453.38 147.62 453.34V459.76C147.62 460.2 147.687 460.52 147.82 460.72C147.967 460.92 148.2 461.02 148.52 461.02H149.24L149.38 461.66C149.22 461.687 148.927 461.733 148.5 461.8C148.087 461.853 147.8 461.893 147.64 461.92C147.48 461.947 147.253 462 146.96 462.08C146.68 462.173 146.467 462.233 146.32 462.26C146.147 462.26 146.06 462.213 146.06 462.12L146 460.88C145.787 461.093 145.64 461.233 145.56 461.3C145.48 461.353 145.367 461.433 145.22 461.54C145.087 461.647 144.94 461.733 144.78 461.8C144.633 461.867 144.46 461.933 144.26 462C143.86 462.16 143.407 462.24 142.9 462.24ZM158.652 459.7C158.652 460.567 158.946 461 159.532 461H159.772L160.112 460.98L160.252 461.62L158.832 461.86C158.499 461.927 158.012 462.053 157.372 462.24C157.199 462.24 157.112 462.187 157.112 462.08L157.052 460.88C156.812 461.213 156.419 461.527 155.872 461.82C155.326 462.1 154.746 462.24 154.132 462.24C153.039 462.24 152.146 461.867 151.452 461.12C150.759 460.36 150.412 459.34 150.412 458.06C150.412 456.487 150.839 455.28 151.692 454.44C152.546 453.587 153.572 453.16 154.772 453.16C155.586 453.16 156.312 453.313 156.952 453.62V449.6C156.952 448.813 156.592 448.42 155.872 448.42C155.699 448.42 155.526 448.44 155.352 448.48L155.172 447.88C156.546 447.48 157.586 447.12 158.292 446.8C158.532 446.8 158.652 446.927 158.652 447.18V459.7ZM156.952 455.9C156.952 455.313 156.746 454.853 156.332 454.52C155.919 454.173 155.326 454 154.552 454C153.779 454 153.199 454.32 152.812 454.96C152.426 455.6 152.232 456.46 152.232 457.54C152.232 458.607 152.479 459.473 152.972 460.14C153.479 460.793 154.126 461.12 154.912 461.12C155.232 461.12 155.526 461.073 155.792 460.98C156.072 460.873 156.259 460.787 156.352 460.72C156.472 460.64 156.672 460.5 156.952 460.3V455.9ZM163.632 462L161.472 462.06L161.312 461.26C161.952 461.207 162.332 461.153 162.452 461.1C162.586 461.033 162.652 460.86 162.652 460.58V455.5C162.652 454.833 162.319 454.5 161.652 454.5C161.492 454.5 161.366 454.507 161.272 454.52L161.092 453.94C161.959 453.727 162.512 453.573 162.752 453.48L163.972 453C164.146 453 164.252 453.02 164.292 453.06C164.332 453.087 164.352 453.173 164.352 453.32V460.58C164.352 460.82 164.412 460.987 164.532 461.08C164.652 461.16 164.946 461.22 165.412 461.26L165.592 462.06L163.632 462ZM163.512 450.64C163.179 450.64 162.899 450.54 162.672 450.34C162.459 450.127 162.352 449.853 162.352 449.52C162.352 449.187 162.466 448.9 162.692 448.66C162.919 448.42 163.199 448.3 163.532 448.3C163.879 448.3 164.159 448.4 164.372 448.6C164.599 448.8 164.712 449.073 164.712 449.42C164.712 449.753 164.592 450.04 164.352 450.28C164.126 450.52 163.846 450.64 163.512 450.64ZM168.932 457.44C168.932 458.48 169.185 459.393 169.692 460.18C170.212 460.953 170.905 461.34 171.772 461.34C172.652 461.34 173.298 461.04 173.712 460.44C174.138 459.84 174.352 459 174.352 457.92C174.352 456.827 174.072 455.9 173.512 455.14C172.965 454.38 172.265 454 171.412 454C170.558 454 169.932 454.313 169.532 454.94C169.132 455.553 168.932 456.387 168.932 457.44ZM171.592 462.24C170.285 462.24 169.212 461.84 168.372 461.04C167.532 460.227 167.112 459.167 167.112 457.86C167.112 456.54 167.538 455.427 168.392 454.52C169.258 453.613 170.345 453.16 171.652 453.16C172.972 453.16 174.052 453.573 174.892 454.4C175.745 455.213 176.172 456.28 176.172 457.6C176.172 458.907 175.732 460.007 174.852 460.9C173.985 461.793 172.898 462.24 171.592 462.24Z" fill="black"/>
<circle cx="284.5" cy="456.5" r="7.5" fill="#6366F1"/>
<path d="M304.38 461.92L302.3 462L302.1 461.08H302.22C302.833 461.013 303.3 460.847 303.62 460.58C303.953 460.3 304.233 459.847 304.46 459.22L308.7 447.8H309.66L314.38 459.54C314.66 460.193 314.907 460.62 315.12 460.82C315.347 461.02 315.707 461.12 316.2 461.12L316.42 462C315.38 461.933 314.44 461.9 313.6 461.9C312.773 461.9 311.967 461.933 311.18 462L311 461.14H311.08C312.133 461.127 312.66 460.94 312.66 460.58C312.66 460.407 312.18 459.22 311.22 457.02H306.24L305.26 459.74C305.22 459.9 305.2 460.04 305.2 460.16C305.2 460.44 305.327 460.653 305.58 460.8C305.833 460.947 306.267 461.04 306.88 461.08L307.12 462L304.38 461.92ZM308.54 450.7L306.62 455.98H310.76L308.54 450.7ZM320.912 462.24C319.005 462.24 318.052 461.233 318.052 459.22V454.78C318.052 454.553 317.985 454.4 317.852 454.32C317.718 454.227 317.418 454.153 316.952 454.1L316.812 453.34C317.172 453.38 317.658 453.4 318.272 453.4C318.898 453.4 319.392 453.38 319.752 453.34V458.54C319.752 460.087 320.458 460.86 321.872 460.86C322.245 460.86 322.625 460.787 323.012 460.64C323.398 460.48 323.705 460.287 323.932 460.06V454.78C323.932 454.54 323.865 454.38 323.732 454.3C323.612 454.22 323.325 454.153 322.872 454.1L322.692 453.34C323.025 453.38 323.512 453.4 324.152 453.4C324.805 453.4 325.298 453.38 325.632 453.34V459.76C325.632 460.2 325.698 460.52 325.832 460.72C325.978 460.92 326.212 461.02 326.532 461.02H327.252L327.392 461.66C327.232 461.687 326.938 461.733 326.512 461.8C326.098 461.853 325.812 461.893 325.652 461.92C325.492 461.947 325.265 462 324.972 462.08C324.692 462.173 324.478 462.233 324.332 462.26C324.158 462.26 324.072 462.213 324.072 462.12L324.012 460.88C323.798 461.093 323.652 461.233 323.572 461.3C323.492 461.353 323.378 461.433 323.232 461.54C323.098 461.647 322.952 461.733 322.792 461.8C322.645 461.867 322.472 461.933 322.272 462C321.872 462.16 321.418 462.24 320.912 462.24ZM336.664 459.7C336.664 460.567 336.957 461 337.544 461H337.784L338.124 460.98L338.264 461.62L336.844 461.86C336.511 461.927 336.024 462.053 335.384 462.24C335.211 462.24 335.124 462.187 335.124 462.08L335.064 460.88C334.824 461.213 334.431 461.527 333.884 461.82C333.337 462.1 332.757 462.24 332.144 462.24C331.051 462.24 330.157 461.867 329.464 461.12C328.771 460.36 328.424 459.34 328.424 458.06C328.424 456.487 328.851 455.28 329.704 454.44C330.557 453.587 331.584 453.16 332.784 453.16C333.597 453.16 334.324 453.313 334.964 453.62V449.6C334.964 448.813 334.604 448.42 333.884 448.42C333.711 448.42 333.537 448.44 333.364 448.48L333.184 447.88C334.557 447.48 335.597 447.12 336.304 446.8C336.544 446.8 336.664 446.927 336.664 447.18V459.7ZM334.964 455.9C334.964 455.313 334.757 454.853 334.344 454.52C333.931 454.173 333.337 454 332.564 454C331.791 454 331.211 454.32 330.824 454.96C330.437 455.6 330.244 456.46 330.244 457.54C330.244 458.607 330.491 459.473 330.984 460.14C331.491 460.793 332.137 461.12 332.924 461.12C333.244 461.12 333.537 461.073 333.804 460.98C334.084 460.873 334.271 460.787 334.364 460.72C334.484 460.64 334.684 460.5 334.964 460.3V455.9ZM341.644 462L339.484 462.06L339.324 461.26C339.964 461.207 340.344 461.153 340.464 461.1C340.597 461.033 340.664 460.86 340.664 460.58V455.5C340.664 454.833 340.331 454.5 339.664 454.5C339.504 454.5 339.377 454.507 339.284 454.52L339.104 453.94C339.971 453.727 340.524 453.573 340.764 453.48L341.984 453C342.157 453 342.264 453.02 342.304 453.06C342.344 453.087 342.364 453.173 342.364 453.32V460.58C342.364 460.82 342.424 460.987 342.544 461.08C342.664 461.16 342.957 461.22 343.424 461.26L343.604 462.06L341.644 462ZM341.524 450.64C341.191 450.64 340.911 450.54 340.684 450.34C340.471 450.127 340.364 449.853 340.364 449.52C340.364 449.187 340.477 448.9 340.704 448.66C340.931 448.42 341.211 448.3 341.544 448.3C341.891 448.3 342.171 448.4 342.384 448.6C342.611 448.8 342.724 449.073 342.724 449.42C342.724 449.753 342.604 450.04 342.364 450.28C342.137 450.52 341.857 450.64 341.524 450.64ZM347.503 459.18C347.503 459.82 347.617 460.313 347.843 460.66C348.07 460.993 348.377 461.16 348.763 461.16C349.163 461.16 349.53 461.053 349.863 460.84C349.917 460.813 349.97 460.827 350.023 460.88L350.383 461.42C349.65 461.967 348.89 462.24 348.103 462.24C347.33 462.24 346.75 462 346.363 461.52C345.99 461.027 345.803 460.447 345.803 459.78V454.76C345.803 454.6 345.777 454.5 345.723 454.46C345.683 454.42 345.623 454.4 345.543 454.4H344.843L344.663 453.82C345.223 453.647 345.677 453.367 346.023 452.98C346.383 452.593 346.73 452.073 347.063 451.42H347.283C347.377 451.42 347.423 451.46 347.423 451.54L347.503 453.14C347.503 453.313 347.59 453.4 347.763 453.4H350.043L350.223 454.4H347.723C347.59 454.4 347.523 454.5 347.523 454.7C347.523 454.713 347.523 454.72 347.523 454.72V454.76L347.503 459.18ZM354.027 462L351.867 462.06L351.707 461.26C352.347 461.207 352.727 461.153 352.847 461.1C352.98 461.033 353.047 460.86 353.047 460.58V455.5C353.047 454.833 352.713 454.5 352.047 454.5C351.887 454.5 351.76 454.507 351.667 454.52L351.487 453.94C352.353 453.727 352.907 453.573 353.147 453.48L354.367 453C354.54 453 354.647 453.02 354.687 453.06C354.727 453.087 354.747 453.173 354.747 453.32V460.58C354.747 460.82 354.807 460.987 354.927 461.08C355.047 461.16 355.34 461.22 355.807 461.26L355.987 462.06L354.027 462ZM353.907 450.64C353.573 450.64 353.293 450.54 353.067 450.34C352.853 450.127 352.747 449.853 352.747 449.52C352.747 449.187 352.86 448.9 353.087 448.66C353.313 448.42 353.593 448.3 353.927 448.3C354.273 448.3 354.553 448.4 354.767 448.6C354.993 448.8 355.107 449.073 355.107 449.42C355.107 449.753 354.987 450.04 354.747 450.28C354.52 450.52 354.24 450.64 353.907 450.64ZM359.326 457.44C359.326 458.48 359.579 459.393 360.086 460.18C360.606 460.953 361.299 461.34 362.166 461.34C363.046 461.34 363.693 461.04 364.106 460.44C364.533 459.84 364.746 459 364.746 457.92C364.746 456.827 364.466 455.9 363.906 455.14C363.359 454.38 362.659 454 361.806 454C360.953 454 360.326 454.313 359.926 454.94C359.526 455.553 359.326 456.387 359.326 457.44ZM361.986 462.24C360.679 462.24 359.606 461.84 358.766 461.04C357.926 460.227 357.506 459.167 357.506 457.86C357.506 456.54 357.933 455.427 358.786 454.52C359.653 453.613 360.739 453.16 362.046 453.16C363.366 453.16 364.446 453.573 365.286 454.4C366.139 455.213 366.566 456.28 366.566 457.6C366.566 458.907 366.126 460.007 365.246 460.9C364.379 461.793 363.293 462.24 361.986 462.24ZM368.392 454.62L368.092 454.64L367.912 454.06C368.845 453.833 369.532 453.607 369.972 453.38C370.412 453.153 370.659 453.027 370.712 453C370.885 453 370.985 453.013 371.012 453.04C371.065 453.093 371.105 453.52 371.132 454.32C371.772 453.933 372.332 453.647 372.812 453.46C373.305 453.26 373.839 453.16 374.412 453.16C376.265 453.16 377.192 454.153 377.192 456.14V460.58C377.192 460.82 377.252 460.987 377.372 461.08C377.492 461.16 377.785 461.22 378.252 461.26L378.432 462.06L376.472 462L374.312 462.06L374.152 461.26C374.792 461.207 375.172 461.153 375.292 461.1C375.425 461.033 375.492 460.86 375.492 460.58V456.82C375.492 455.967 375.325 455.373 374.992 455.04C374.659 454.707 374.132 454.54 373.412 454.54C372.692 454.54 371.945 454.727 371.172 455.1V460.58C371.172 460.82 371.232 460.987 371.352 461.08C371.472 461.16 371.765 461.22 372.232 461.26L372.412 462.06L370.452 462L368.292 462.06L368.132 461.26C368.772 461.207 369.152 461.153 369.272 461.1C369.405 461.033 369.472 460.86 369.472 460.58V455.9C369.472 455.42 369.385 455.087 369.212 454.9C369.039 454.713 368.765 454.62 368.392 454.62Z" fill="black"/>
<path d="M97 353L182 255L313 307L431 159L515 109L603 159L711 256L795 159L933 109" stroke="#6366F1" stroke-width="4"/>
<path d="M99 208L201 306L308 227L420 287H522L632 208L730 158L830 208L933 158" stroke="#38BDF8" stroke-width="4"/>
</svg>
